<svg xmlns="http://www.w3.org/2000/svg" version="1.1" xmlns:xlink="http://www.w3.org/1999/xlink" xmlns:svgjs="http://svgjs.dev/svgjs" width="512" height="512"><svg version="1.1" xmlns="http://www.w3.org/2000/svg" width="512" height="512">
<path d="M0 0 C23.1708133 21.58288343 48.08407492 55.64209276 52 88 C52.57967529 87.67725098 53.15935059 87.35450195 53.7565918 87.02197266 C56.39854019 85.55325532 59.04298533 84.08909116 61.6875 82.625 C62.59951172 82.11710937 63.51152344 81.60921875 64.45117188 81.0859375 C65.33740234 80.59609375 66.22363281 80.10625 67.13671875 79.6015625 C67.94842529 79.15119629 68.76013184 78.70083008 69.59643555 78.23681641 C73.84173218 76.05228896 77.32297953 74.70952762 82.125 74.6875 C82.97320312 74.67074219 83.82140625 74.65398437 84.6953125 74.63671875 C87 75 87 75 88.76171875 76.2578125 C90.79791616 79.12262021 90.71388339 81.43007682 90.59375 84.87890625 C88.13289352 97.81459263 78.56918122 109.57210339 71 120 C70.19973389 121.10311523 70.19973389 121.10311523 69.38330078 122.22851562 C68.27203887 123.75899219 67.16038222 125.28918222 66.04833984 126.8190918 C63.35119249 130.53583483 60.67128971 134.26464228 58 138 C57.52127441 138.66370605 57.04254883 139.32741211 56.54931641 140.01123047 C55.23812413 141.84634031 53.95857604 143.69945832 52.6875 145.5625 C51.96949219 146.59503906 51.25148438 147.62757813 50.51171875 148.69140625 C47.47025129 155.34805467 49.03092149 162.46299829 50.6796875 169.3671875 C50.85251251 170.12742218 51.02533752 170.88765686 51.20339966 171.67092896 C51.75149911 174.07448515 52.31260121 176.47475367 52.875 178.875 C53.6053626 182.03819466 54.33084505 185.20249494 55.0546875 188.3671875 C55.22828293 189.12506058 55.40187836 189.88293365 55.58073425 190.66377258 C61.81532719 218.07195097 61.81532719 218.07195097 55.6640625 228.65625 C48.1692715 239.21229366 37.8181931 245.77756612 25 248 C21.76495557 248.28573767 18.55891906 248.33378799 15.3125 248.3125 C14.43835449 248.30831055 13.56420898 248.30412109 12.66357422 248.29980469 C1.92654136 248.11396762 -8.111547 246.888453 -16 239 C-16.6328125 236.7578125 -16.6328125 236.7578125 -17.125 234.125 C-17.29257812 233.26132812 -17.46015625 232.39765625 -17.6328125 231.5078125 C-18 229 -18 229 -18 225 C-18.77355835 225.45101074 -18.77355835 225.45101074 -19.56274414 225.91113281 C-38.66438362 237.01580996 -58.18929059 247.22403309 -78 257 C-77.78065796 258.20160767 -77.78065796 258.20160767 -77.55688477 259.42749023 C-76.88892001 263.09692454 -76.22567566 266.76719727 -75.5625 270.4375 C-75.21735352 272.32758789 -75.21735352 272.32758789 -74.86523438 274.25585938 C-68.77951807 308.03599481 -68.77951807 308.03599481 -75.3984375 318.92578125 C-82.9690045 328.73058876 -94.64209144 333.99744309 -106.77001953 335.77294922 C-111.69044212 336.27393378 -116.62020495 336.33243791 -121.5625 336.375 C-122.60293457 336.38893799 -123.64336914 336.40287598 -124.71533203 336.41723633 C-137.6819325 336.33863231 -146.97607373 333.65424594 -156.375 324.75 C-162.65685078 314.1191756 -161.14988445 298.13428473 -161.0625 286.25 C-161.05798828 285.0640625 -161.05347656 283.878125 -161.04882812 282.65625 C-161.03719316 279.77077772 -161.0208484 276.88541787 -161 274 C-161.59292847 273.96907761 -162.18585693 273.93815521 -162.79675293 273.90629578 C-213.66474968 271.24280071 -213.66474968 271.24280071 -232.9375 269.375 C-234.2059375 269.25213623 -235.474375 269.12927246 -236.78125 269.00268555 C-241.89187643 268.48484204 -246.93751932 267.8803094 -252 267 C-251.84144531 268.258125 -251.68289062 269.51625 -251.51953125 270.8125 C-250.92494375 276.21131223 -250.743734 281.57154494 -250.6875 287 C-250.65849609 287.93328125 -250.62949219 288.8665625 -250.59960938 289.828125 C-250.54143627 296.23611678 -251.46829278 301.54405222 -255 307 C-264.45777207 315.71041334 -280.02086592 316.36739757 -292.21484375 315.91845703 C-307.15170101 315.04714036 -320.76061647 311.67303529 -331.375 300.5 C-335.8627431 293.59577984 -335.92908901 286.52403 -334.3125 278.65234375 C-332.89054907 273.11265992 -331.25425208 267.68798858 -329.3984375 262.28125 C-329.12596191 261.48589844 -328.85348633 260.69054687 -328.57275391 259.87109375 C-328.03728005 258.32791212 -327.49062955 256.78854857 -326.93115234 255.25390625 C-325.30266673 250.62083849 -324.71560265 246.91231779 -325 242 C-325.85980469 241.53851563 -326.71960938 241.07703125 -327.60546875 240.6015625 C-336.39166727 235.79234085 -344.2999959 230.39762245 -352 224 C-352.78552246 223.36022217 -352.78552246 223.36022217 -353.58691406 222.70751953 C-372.64027147 207.03421593 -382.87006019 182.8588079 -385.71484375 158.63671875 C-387.90403594 130.71702106 -381.375147 105.30647509 -363.1796875 83.46484375 C-345.36325478 63.3175874 -322.16840393 50.00889727 -295 48 C-291.83135917 47.89829302 -288.66980024 47.90394348 -285.5 47.9375 C-284.26636719 47.94426758 -284.26636719 47.94426758 -283.0078125 47.95117188 C-281.00517604 47.96281511 -279.00257773 47.98074444 -277 48 C-276.7313916 47.11860352 -276.4627832 46.23720703 -276.18603516 45.32910156 C-274.30412878 40.04674764 -271.29910654 35.51316726 -268.375 30.75 C-267.78332031 29.76386719 -267.19164062 28.77773437 -266.58203125 27.76171875 C-245.45466358 -6.87256216 -212.40019466 -29.31182497 -173.44140625 -39.19140625 C-111.51034139 -53.88144957 -47.5246665 -42.91159787 0 0 Z " fill="#BCCE46" transform="translate(405,144)"></path>
<path d="M0 0 C24.94454744 23.23506097 50.96604762 60.08873994 53.20507812 95.2175293 C53.3027293 98.62660162 53.32212842 102.02711346 53.3125 105.4375 C53.32861328 106.57509766 53.34472656 107.71269531 53.36132812 108.88476562 C53.37724566 136.78820472 35.96137628 159.06286834 17.3125 178.125 C10.0798454 185.35542688 3.04094277 191.182335 -6 196 C-7.66095703 196.89332031 -7.66095703 196.89332031 -9.35546875 197.8046875 C-27.13653625 206.68535384 -46.404869 212.06772148 -66 215 C-66.71687988 215.11569336 -67.43375977 215.23138672 -68.17236328 215.35058594 C-88.98555236 218.64124731 -111.45055221 218.84572131 -132 214 C-133.46179688 213.67515625 -133.46179688 213.67515625 -134.953125 213.34375 C-146.18880196 210.44866759 -153.47426079 204.42764059 -160 195 C-160.52207031 194.28585937 -161.04414063 193.57171875 -161.58203125 192.8359375 C-169.64916902 180.78844416 -172.94938581 165.61256198 -176.4375 151.75 C-182.61769782 127.3100485 -189.89342062 103.84367877 -206 84 C-206.48154541 83.3723877 -206.96309082 82.74477539 -207.45922852 82.09814453 C-223.29553862 61.49299924 -252.66746838 52.44536635 -277 48 C-275.05129959 41.60564412 -271.85343187 36.41612487 -268.375 30.75 C-267.78332031 29.76386719 -267.19164062 28.77773437 -266.58203125 27.76171875 C-245.45466358 -6.87256216 -212.40019466 -29.31182497 -173.44140625 -39.19140625 C-111.51034139 -53.88144957 -47.5246665 -42.91159787 0 0 Z " fill="#484E23" transform="translate(405,144)"></path>
<path d="M0 0 C7.65923784 7.07996775 13.35083647 16.28123057 19.296875 24.78125 C19.87276367 25.60302734 20.44865234 26.42480469 21.04199219 27.27148438 C23.38492222 30.6162822 25.72626701 33.96214634 28.06054688 37.31298828 C31.9514544 42.89132324 35.91606088 48.41005419 39.921875 53.90625 C44.34708883 59.99859347 48.66064498 66.15544089 52.859375 72.40625 C53.34809082 73.12828613 53.83680664 73.85032227 54.34033203 74.59423828 C63.43931802 88.26973137 63.43931802 88.26973137 62.21484375 94.46484375 C55.02422394 112.60968437 34.95735245 130.68230022 17.6484375 138.41015625 C13.89764662 139.95857318 10.10233223 141.37318977 6.296875 142.78125 C4.89115234 143.33619141 4.89115234 143.33619141 3.45703125 143.90234375 C-8.92772343 148.6886324 -22.11095708 151.77564682 -35.390625 152.21875 C-36.67324219 152.27933594 -37.95585937 152.33992187 -39.27734375 152.40234375 C-42.703125 151.78125 -42.703125 151.78125 -44.94921875 149.4140625 C-47.3843059 144.96508187 -48.70874657 140.07628052 -50.078125 135.21875 C-50.37775146 134.17082275 -50.67737793 133.12289551 -50.98608398 132.04321289 C-54.58275093 119.10376407 -57.15712698 105.95984463 -59.703125 92.78125 C-59.96225692 91.44642358 -60.22153624 90.11162577 -60.48095703 88.77685547 C-62.58354624 77.94900572 -62.58354624 77.94900572 -63.58081055 72.70092773 C-64.79948239 66.31560776 -66.08727693 59.96298287 -67.54516602 53.62817383 C-71.67584883 35.43841026 -71.67584883 35.43841026 -69.703125 27.78125 C-65.06354454 21.81075967 -57.37898264 18.75679987 -50.765625 15.53125 C-49.06853394 14.69352051 -49.06853394 14.69352051 -47.3371582 13.83886719 C-7.67293985 -5.4907276 -7.67293985 -5.4907276 0 0 Z " fill="#6D8139" transform="translate(360.703125,159.21875)"></path>
<path d="M0 0 C2.54998709 0.65155354 5.10076508 1.30001994 7.65234375 1.9453125 C8.85874512 2.25243164 10.06514648 2.55955078 11.30810547 2.87597656 C15.37096816 3.87001127 19.44048913 4.67416359 23.5625 5.375 C49.21792969 9.91382467 49.21792969 9.91382467 55.625 17.6875 C58.64309142 24.87626106 60.161966 32.7757773 61.87109375 40.36328125 C62.0846199 41.30789215 62.29814606 42.25250305 62.5181427 43.22573853 C65.1057443 54.73876881 67.57715052 66.27664335 70.01928711 77.82128906 C70.55050672 80.3268013 71.08471389 82.83168187 71.62182617 85.3359375 C80.45441098 126.52077402 80.45441098 126.52077402 78.625 135.6875 C75.19710159 137.97276561 73.91492192 137.94431715 69.8828125 137.953125 C68.73296875 137.95570313 67.583125 137.95828125 66.3984375 137.9609375 C65.19445312 137.95320312 63.99046875 137.94546875 62.75 137.9375 C61.5846875 137.94523438 60.419375 137.95296875 59.21875 137.9609375 C48.05264067 137.93617894 37.40716785 136.65320516 26.8125 133.0625 C26.10802734 132.83304688 25.40355469 132.60359375 24.67773438 132.3671875 C22.99053318 131.81626466 21.30727184 131.25329618 19.625 130.6875 C19.295 131.3475 18.965 132.0075 18.625 132.6875 C18.45484375 131.99527344 18.2846875 131.30304688 18.109375 130.58984375 C11.16165449 102.54026998 4.17281544 74.53883813 -14.375 51.6875 C-14.85654541 51.0598877 -15.33809082 50.43227539 -15.83422852 49.78564453 C-22.4890885 41.12678675 -32.38000506 35.41273737 -41.83007812 30.25024414 C-44.32241409 28.88836056 -46.35346597 27.70903403 -48.375 25.6875 C-47.715 25.6875 -47.055 25.6875 -46.375 25.6875 C-46.11074219 24.82769531 -45.84648437 23.96789062 -45.57421875 23.08203125 C-36.61020819 -2.2916664 -25.14403233 -6.73191086 0 0 Z " fill="#6D8139" transform="translate(213.375,176.3125)"></path>
<path d="M0 0 C0.63078173 9.04120484 -1.16714024 18.91444553 -7 26 C-9.37255606 27.47988184 -11.46302516 28.59285534 -14 29.6875 C-14.72566162 30.01508301 -15.45132324 30.34266602 -16.19897461 30.68017578 C-25.58929582 34.83596585 -35.20839711 38.46348416 -44.78125 42.171875 C-52.78636737 45.2849762 -60.71049432 48.58054388 -68.62524414 51.91552734 C-69.55457764 52.30691895 -70.48391113 52.69831055 -71.44140625 53.1015625 C-72.25295166 53.44525879 -73.06449707 53.78895508 -73.90063477 54.14306641 C-86.8920351 59.44598712 -102.39978758 54.70823384 -115.5 51.875 C-117.46800179 51.45876884 -119.43610144 51.0430001 -121.40429688 50.62768555 C-170.98237282 40.08686284 -170.98237282 40.08686284 -180 27 C-181.45471795 24.70284837 -182.74212041 22.41512882 -184 20 C-136.68669673 -18.06328668 -55.02002002 -23.34762589 0 0 Z " fill="#6D8139" transform="translate(358,112)"></path>
<path d="M0 0 C5.29910976 9.74575403 5.30861099 20.81318136 5.375 31.625 C5.39554443 33.32184937 5.39554443 33.32184937 5.41650391 35.05297852 C5.26056709 64.06354832 -13.51928709 86.96207504 -33.06542969 106.50219727 C-39.56212922 112.81902728 -45.99312519 117.73336083 -54 122 C-55.66095703 122.89332031 -55.66095703 122.89332031 -57.35546875 123.8046875 C-75.13653625 132.68535384 -94.404869 138.06772148 -114 141 C-114.71687988 141.11569336 -115.43375977 141.23138672 -116.17236328 141.35058594 C-136.98555236 144.64124731 -159.45055221 144.84572131 -180 140 C-180.97453125 139.7834375 -181.9490625 139.566875 -182.953125 139.34375 C-194.03623368 136.48797966 -201.74589171 130.51290086 -208 121 C-209.83001618 117.73179593 -211.48438183 114.42471413 -213 111 C-211.95779297 111.29003906 -211.95779297 111.29003906 -210.89453125 111.5859375 C-164.43532509 123.48043641 -103.55923888 118.84662845 -62.15771484 94.32861328 C-34.79608039 77.48068222 -15.98164845 51.75030738 -6.25439453 21.40112305 C-5.61414947 19.40364786 -4.95877869 17.41161272 -4.30078125 15.41992188 C-1.78701793 7.80743094 -1.78701793 7.80743094 0 0 Z " fill="#6E8239" transform="translate(453,218)"></path>
<path d="M0 0 C4.47595752 1.48641873 7.86387813 3.95785363 11.5 6.875 C12.41422729 7.6031189 12.41422729 7.6031189 13.34692383 8.34594727 C31.69404196 23.14063514 46.89732272 40.18539114 59.5625 60.0625 C60.0877124 60.88435791 60.6129248 61.70621582 61.15405273 62.55297852 C61.64075439 63.33084717 62.12745605 64.10871582 62.62890625 64.91015625 C63.2796814 65.94861694 63.2796814 65.94861694 63.94360352 67.00805664 C66.4170435 71.67198011 65.93325843 75.82674021 65.3125 80.9375 C65.22436035 81.68443115 65.1362207 82.4313623 65.04541016 83.20092773 C64.14567105 90.08840856 62.34472182 96.45526677 60 103 C56 103 56 103 54.09765625 101.41015625 C43.73056785 89.45119248 34.44404218 76.64611405 25.09765625 63.88598633 C21.58525938 59.10495169 18.00331914 54.39446931 14.3125 49.75 C10.45836825 44.89356636 6.68864974 39.98356865 3 35 C2.54278564 34.38866211 2.08557129 33.77732422 1.61450195 33.14746094 C-3.24465268 26.53252326 -5.97979181 21.30244638 -5 13 C-2.92 2.92 -2.92 2.92 0 0 Z " fill="#6D8139" transform="translate(377,123)"></path>
<path d="M0 0 C6.42926261 2.80967775 10.1822237 6.66000332 13 13 C14.67532886 18.53088021 15.22916909 24.92452713 13.05859375 30.35546875 C10.26793685 35.01822777 6.91652716 38.54173642 2 41 C-10.17541653 42.19199882 -10.17541653 42.19199882 -15.0625 38.9375 C-19.92046955 34.69431072 -22.63699625 29.10473475 -23.203125 22.703125 C-23.32374235 16.39081704 -23.04124658 10.34792691 -18.60546875 5.46484375 C-12.79250448 0.41713047 -7.59392955 -1.25638951 0 0 Z " fill="#2B2C28" transform="translate(151,246)"></path>
<path d="M0 0 C4.66483474 2.64047249 7.23911543 5.72823085 9.625 10.5 C10.99580558 17.22940921 11.79993026 24.19111497 8.1875 30.3125 C5.26544961 34.30846635 1.7735257 37.64448715 -2.6875 39.875 C-9.22590941 40.64551963 -14.58352821 40.41499001 -20.03125 36.5078125 C-24.42640328 32.17485479 -26.79470211 25.79241088 -27 19.6875 C-26.8909595 13.57131907 -24.98146655 9.26127909 -20.74609375 4.85546875 C-14.22853493 -1.03794079 -8.54011941 -2.60546016 0 0 Z " fill="#2C2D28" transform="translate(80.6875,245.125)"></path>
<path d="M0 0 C2.94691297 1.66910216 5.42535913 3.81155526 8 6 C9.76774945 7.42051295 11.53865223 8.83710962 13.3125 10.25 C14.13363281 10.91515625 14.95476562 11.5803125 15.80078125 12.265625 C19.53800891 15.34358518 19.53800891 15.34358518 24.2109375 15.9296875 C28.80592328 14.802258 31.82390625 12.85220751 35.625 10.125 C36.90822411 9.23086593 38.19206539 8.33761684 39.4765625 7.4453125 C40.38317627 6.81266479 40.38317627 6.81266479 41.30810547 6.16723633 C46.10887383 2.85519109 49.00483934 1.22284954 55 2 C57.32438401 4.02446349 57.87025579 5.38371501 58.5 8.375 C57.20001147 15.1999398 50.16534024 19.41595931 44.8125 23.125 C44.05582031 23.65053467 43.29914063 24.17606934 42.51953125 24.7175293 C28.20869843 34.4536128 28.20869843 34.4536128 19.5390625 32.921875 C9.69194388 29.34661347 -4.67777702 19.84764003 -9.27734375 10.3671875 C-10.09045439 7.70370075 -10.36394456 5.76597868 -10 3 C-7.64013489 -1.02565225 -4.25952641 -0.62845472 0 0 Z " fill="#2C2E28" transform="translate(84,298)"></path>
<path d="M0 0 C3.67166759 1.2238892 4.75026941 2.71754141 7.1875 5.6875 C8.26064453 6.96173828 8.26064453 6.96173828 9.35546875 8.26171875 C11.3581151 11.59629142 11.62130881 13.16941104 11 17 C9.2421875 20.078125 9.2421875 20.078125 6.875 23.25 C6.04198533 24.39547683 5.21126897 25.54262842 4.3828125 26.69140625 C3.97450195 27.25230957 3.56619141 27.81321289 3.14550781 28.39111328 C-1.67174498 35.15703312 -5.38070569 42.54851172 -9 50 C-19.395 48.02 -19.395 48.02 -30 46 C-27.84751561 39.54254683 -24.91095649 34.5098285 -21.375 28.75 C-20.78332031 27.76386719 -20.19164062 26.77773437 -19.58203125 25.76171875 C-13.89880499 16.44515562 -7.14583429 8.21770943 0 0 Z " fill="#6D8239" transform="translate(158,146)"></path>
</svg><style>@media (prefers-color-scheme: light) { :root { filter: none; } }
@media (prefers-color-scheme: dark) { :root { filter: none; } }
</style></svg>